<svg xmlns="http://www.w3.org/2000/svg" viewBox="0 0 600 260"><defs><style>.cls-1{fill:#fff;}</style></defs><g id="Layer_5" data-name="Layer 5"><path class="cls-1" d="M98.89,61.55A2.49,2.49,0,0,1,97,60.8a2.61,2.61,0,0,1-.73-1.87V32.31A2.6,2.6,0,0,1,97,30.44a2.64,2.64,0,0,1,3.71,0,2.56,2.56,0,0,1,.73,1.87V58.93a2.57,2.57,0,0,1-.73,1.87A2.49,2.49,0,0,1,98.89,61.55Zm13.69-23a2.28,2.28,0,0,1,1.73.82,2.49,2.49,0,0,1,.73,1.59,2.59,2.59,0,0,1-1,1.94L101,54.79l-.21-5.94,9.86-9.52A2.6,2.6,0,0,1,112.58,38.51Zm.65,23a2.48,2.48,0,0,1-1.9-.86l-8-8.44,3.92-3.62L115,57a2.78,2.78,0,0,1,.82,1.94A2.24,2.24,0,0,1,115,60.8,2.82,2.82,0,0,1,113.23,61.51Z"/><path class="cls-1" d="M138.85,38.08a2.52,2.52,0,0,1,1.86.73,2.6,2.6,0,0,1,.73,1.9V58.93a2.61,2.61,0,0,1-.73,1.87,2.67,2.67,0,0,1-3.71,0,2.57,2.57,0,0,1-.73-1.87V56.82l.95.38a2.37,2.37,0,0,1-.61,1.36A8.2,8.2,0,0,1,135,60.13a9.91,9.91,0,0,1-2.44,1.32,8.54,8.54,0,0,1-3,.53,9.87,9.87,0,0,1-5.39-1.53,10.76,10.76,0,0,1-3.81-4.22,13.21,13.21,0,0,1-1.4-6.18,13.35,13.35,0,0,1,1.4-6.22,11,11,0,0,1,3.77-4.22,9.49,9.49,0,0,1,5.26-1.53,10.06,10.06,0,0,1,3.4.56,10.23,10.23,0,0,1,2.69,1.42,8.39,8.39,0,0,1,1.77,1.75,2.78,2.78,0,0,1,.62,1.48l-1.55.56V40.71a2.6,2.6,0,0,1,.73-1.88A2.49,2.49,0,0,1,138.85,38.08Zm-8.7,19.17a5.86,5.86,0,0,0,3.32-1,6.32,6.32,0,0,0,2.22-2.59,8.26,8.26,0,0,0,.8-3.66,8.38,8.38,0,0,0-.8-3.7,6.36,6.36,0,0,0-2.22-2.58,5.86,5.86,0,0,0-3.32-1,5.78,5.78,0,0,0-3.27,1,6.36,6.36,0,0,0-2.22,2.58,8.37,8.37,0,0,0-.79,3.7,8.26,8.26,0,0,0,.79,3.66,6.32,6.32,0,0,0,2.22,2.59A5.78,5.78,0,0,0,130.15,57.25Z"/><path class="cls-1" d="M149.62,61.55a2.47,2.47,0,0,1-1.85-.75,2.57,2.57,0,0,1-.73-1.87V41.14a2.6,2.6,0,0,1,.73-1.88,2.66,2.66,0,0,1,3.7,0,2.6,2.6,0,0,1,.74,1.88v4l-.31-2.89a6.83,6.83,0,0,1,1.23-1.83,7.3,7.3,0,0,1,1.7-1.33,7.6,7.6,0,0,1,2-.8,9.23,9.23,0,0,1,2.15-.26,3.3,3.3,0,0,1,2.18.73,2.22,2.22,0,0,1,.88,1.73,2.57,2.57,0,0,1-.73,2,2.4,2.4,0,0,1-1.6.63,3.56,3.56,0,0,1-1.48-.31,3.73,3.73,0,0,0-1.53-.3,3.64,3.64,0,0,0-1.57.37,4.22,4.22,0,0,0-1.47,1.14A6.33,6.33,0,0,0,152.61,46a8.06,8.06,0,0,0-.4,2.69V58.93a2.58,2.58,0,0,1-.74,1.87A2.47,2.47,0,0,1,149.62,61.55Z"/><path class="cls-1" d="M166,38.94h10.2a2.36,2.36,0,0,1,2.42,2.41,2.21,2.21,0,0,1-.69,1.66,2.38,2.38,0,0,1-1.73.67H166a2.34,2.34,0,0,1-2.41-2.41,2.26,2.26,0,0,1,.68-1.66A2.42,2.42,0,0,1,166,38.94Zm4.61-5.38a2.43,2.43,0,0,1,1.83.75,2.66,2.66,0,0,1,.71,1.88V55.35a2,2,0,0,0,.23,1,1.36,1.36,0,0,0,.65.56,2.16,2.16,0,0,0,.88.17,2.27,2.27,0,0,0,.95-.19,2.4,2.4,0,0,1,1-.19,1.44,1.44,0,0,1,1.1.56,2.33,2.33,0,0,1-.82,3.53,5.54,5.54,0,0,1-2.82.77,14.88,14.88,0,0,1-2-.15,5.35,5.35,0,0,1-2.07-.73,4.51,4.51,0,0,1-1.62-1.79,7.08,7.08,0,0,1-.64-3.31V36.19a2.56,2.56,0,0,1,2.63-2.63Z"/><path class="cls-1" d="M200.44,38.51a2.46,2.46,0,0,1,1.85.75,2.6,2.6,0,0,1,.74,1.88V52.08a10,10,0,0,1-2.55,7.23Q197.95,62,193.16,62c-3.18,0-5.62-.89-7.3-2.67a10.11,10.11,0,0,1-2.52-7.23V41.14a2.6,2.6,0,0,1,.74-1.88,2.46,2.46,0,0,1,1.85-.75,2.49,2.49,0,0,1,1.85.75,2.6,2.6,0,0,1,.73,1.88V52.08a5.66,5.66,0,0,0,1.16,3.9,5.49,5.49,0,0,0,7,0,5.61,5.61,0,0,0,1.17-3.9V41.14a2.6,2.6,0,0,1,.73-1.88A2.47,2.47,0,0,1,200.44,38.51Z"/><path class="cls-1" d="M62,72.71a38.92,38.92,0,0,1,21.42,6.06,43,43,0,0,1,15,16.64Q104,106,104,120t-5.55,24.67a43.27,43.27,0,0,1-14.84,16.72,37.49,37.49,0,0,1-20.91,6.06,36.44,36.44,0,0,1-12.8-2.22,41,41,0,0,1-10.5-5.63,32.5,32.5,0,0,1-7-6.91c-1.65-2.33-2.48-4.3-2.48-5.89l5.29-2.22v44.89a10.21,10.21,0,0,1-2.9,7.42,9.8,9.8,0,0,1-7.34,3A9.9,9.9,0,0,1,17.65,197a10.12,10.12,0,0,1-2.91-7.5V84.83a10.2,10.2,0,0,1,2.91-7.42,9.78,9.78,0,0,1,7.33-3,9.8,9.8,0,0,1,7.34,3,10.2,10.2,0,0,1,2.9,7.42v8.36l-2.9-1.53q0-2.22,2.39-5.38A34.69,34.69,0,0,1,41.2,80a37,37,0,0,1,9.47-5.2A31.68,31.68,0,0,1,62,72.71ZM59.46,91.49a23.13,23.13,0,0,0-13.14,3.75,25.41,25.41,0,0,0-8.79,10.15A32.49,32.49,0,0,0,34.37,120a33.21,33.21,0,0,0,3.16,14.6,25.13,25.13,0,0,0,8.79,10.32,23.06,23.06,0,0,0,13.14,3.76,22.66,22.66,0,0,0,13.05-3.76,25.48,25.48,0,0,0,8.71-10.32A33.34,33.34,0,0,0,84.37,120a32.63,32.63,0,0,0-3.15-14.59,25.78,25.78,0,0,0-8.71-10.15A22.73,22.73,0,0,0,59.46,91.49Z"/><path class="cls-1" d="M163.22,167.43q-14.5,0-25.17-6.06a41.8,41.8,0,0,1-16.39-16.47,48.12,48.12,0,0,1-5.72-23.55q0-15.36,6.23-26.2a44.18,44.18,0,0,1,16.3-16.64,42.16,42.16,0,0,1,21.34-5.8,38.77,38.77,0,0,1,16.46,3.59A45,45,0,0,1,190,86.11a47.89,47.89,0,0,1,9.48,14.42A43.88,43.88,0,0,1,203,117.94a8.72,8.72,0,0,1-3.24,6.65,10.85,10.85,0,0,1-7.17,2.56H127.38l-5.12-17.06h62.63l-3.75,3.41v-4.61a15.61,15.61,0,0,0-3.5-8.87,22.9,22.9,0,0,0-7.85-6.23,22.31,22.31,0,0,0-10-2.3,32.34,32.34,0,0,0-9.56,1.36,18.31,18.31,0,0,0-7.68,4.61,22.34,22.34,0,0,0-5.12,8.7A42.89,42.89,0,0,0,135.57,120q0,9.22,3.84,15.62a26.25,26.25,0,0,0,22.78,13.06,39.28,39.28,0,0,0,10.07-1,22.29,22.29,0,0,0,6.06-2.47c1.54-1,2.93-1.79,4.18-2.48a13.06,13.06,0,0,1,5.81-1.53,8.59,8.59,0,0,1,8.7,8.53q0,4.6-4.78,8.36a39.3,39.3,0,0,1-12.46,6.57A49.54,49.54,0,0,1,163.22,167.43Z"/><path class="cls-1" d="M242.23,154.51a11.32,11.32,0,0,1-3,8,9.75,9.75,0,0,1-7.43,3.21,9.3,9.3,0,0,1-7.17-3.21,11.53,11.53,0,0,1-2.9-8V40.9a11.31,11.31,0,0,1,3-8,9.72,9.72,0,0,1,7.42-3.22,9.23,9.23,0,0,1,7.26,3.22,11.73,11.73,0,0,1,2.81,8Z"/><path class="cls-1" d="M340,72.71a10,10,0,0,1,7.34,2.9,10.19,10.19,0,0,1,2.9,7.51v72.19a10.26,10.26,0,0,1-2.9,7.43,10.53,10.53,0,0,1-14.68,0,10.26,10.26,0,0,1-2.9-7.43V147l3.76,1.54q0,2.22-2.39,5.37a32.69,32.69,0,0,1-6.49,6.23A39.55,39.55,0,0,1,315,165.3a33.29,33.29,0,0,1-12,2.13,39,39,0,0,1-21.33-6.06,42.58,42.58,0,0,1-15.11-16.72A52.3,52.3,0,0,1,261,120.16q0-14,5.54-24.66a43.13,43.13,0,0,1,14.94-16.73,37.54,37.54,0,0,1,20.81-6.06,39.44,39.44,0,0,1,13.49,2.22,40.44,40.44,0,0,1,10.66,5.63,32.14,32.14,0,0,1,7,6.92q2.48,3.49,2.48,5.88l-6.15,2.22V83.12a10.25,10.25,0,0,1,2.9-7.42A9.81,9.81,0,0,1,340,72.71Zm-34.47,76a23.11,23.11,0,0,0,13.14-3.76,25.37,25.37,0,0,0,8.79-10.24,32.72,32.72,0,0,0,3.15-14.5,33.17,33.17,0,0,0-3.15-14.68,25.43,25.43,0,0,0-8.79-10.24,23.18,23.18,0,0,0-13.14-3.75,22.83,22.83,0,0,0-13,3.75,25.28,25.28,0,0,0-8.79,10.24,33,33,0,0,0-3.16,14.68,32.59,32.59,0,0,0,3.16,14.5,25.22,25.22,0,0,0,8.79,10.24A22.76,22.76,0,0,0,305.55,148.66Z"/><path class="cls-1" d="M395.48,167.43a35.46,35.46,0,0,1-3.75,16.81,28.19,28.19,0,0,1-10.07,11,26.33,26.33,0,0,1-14.16,3.92,9.09,9.09,0,0,1-6.92-2.81,9.53,9.53,0,0,1-2.64-6.74v-1.88a7.64,7.64,0,0,1,2.47-6,16.91,16.91,0,0,1,6.23-3.42,10.93,10.93,0,0,0,5.8-3.84,13.08,13.08,0,0,0,2.14-5.89,58.55,58.55,0,0,0,.42-7.16V84.83a10.2,10.2,0,0,1,2.91-7.42,10.49,10.49,0,0,1,14.67,0,10.2,10.2,0,0,1,2.9,7.42Z"/><path class="cls-1" d="M493.27,72.71a10,10,0,0,1,7.34,2.9,10.19,10.19,0,0,1,2.9,7.51v72.19a10.26,10.26,0,0,1-2.9,7.43,10.53,10.53,0,0,1-14.68,0,10.26,10.26,0,0,1-2.9-7.43V147l3.76,1.54q0,2.22-2.39,5.37a32.69,32.69,0,0,1-6.49,6.23,39.55,39.55,0,0,1-9.64,5.21,33.29,33.29,0,0,1-12,2.13,39,39,0,0,1-21.33-6.06,42.58,42.58,0,0,1-15.11-16.72,52.3,52.3,0,0,1-5.54-24.49q0-14,5.54-24.66a43.13,43.13,0,0,1,14.94-16.73,37.54,37.54,0,0,1,20.81-6.06A39.44,39.44,0,0,1,469,74.93a40.44,40.44,0,0,1,10.66,5.63,32.14,32.14,0,0,1,7,6.92q2.48,3.49,2.47,5.88L483,95.58V83.12a10.25,10.25,0,0,1,2.9-7.42A9.81,9.81,0,0,1,493.27,72.71Zm-34.47,76a23.11,23.11,0,0,0,13.14-3.76,25.37,25.37,0,0,0,8.79-10.24,32.72,32.72,0,0,0,3.15-14.5,33.17,33.17,0,0,0-3.15-14.68,25.43,25.43,0,0,0-8.79-10.24,23.18,23.18,0,0,0-13.14-3.75,22.83,22.83,0,0,0-13,3.75A25.28,25.28,0,0,0,437,105.48a33,33,0,0,0-3.16,14.68,32.59,32.59,0,0,0,3.16,14.5,25.22,25.22,0,0,0,8.79,10.24A22.76,22.76,0,0,0,458.8,148.66Z"/><path class="cls-1" d="M535.93,165.72a9.77,9.77,0,0,1-7.33-3,10.23,10.23,0,0,1-2.91-7.43V84.83a10.2,10.2,0,0,1,2.91-7.42,10.49,10.49,0,0,1,14.67,0,10.2,10.2,0,0,1,2.9,7.42v16L545,89.44a26.69,26.69,0,0,1,4.86-7.26,29.22,29.22,0,0,1,6.74-5.29,30.66,30.66,0,0,1,8-3.15,36,36,0,0,1,8.53-1,13.1,13.1,0,0,1,8.62,2.9,8.67,8.67,0,0,1,3.5,6.83c0,3.75-1,6.46-2.91,8.11A9.5,9.5,0,0,1,576,93a14.25,14.25,0,0,1-5.89-1.19,14.5,14.5,0,0,0-6.06-1.2,15,15,0,0,0-6.23,1.45,17.29,17.29,0,0,0-5.8,4.52,24.18,24.18,0,0,0-4.27,7.6,31.68,31.68,0,0,0-1.62,10.67v40.44a10.22,10.22,0,0,1-2.9,7.43A9.79,9.79,0,0,1,535.93,165.72Z"/><path class="cls-1" d="M352.05,234.37a61.1,61.1,0,0,1-37.66-30.9,10.73,10.73,0,0,1,5.25-14.72l.87-.38a10.82,10.82,0,0,1,13.92,5.1,38.8,38.8,0,0,0,68.59.4,10.63,10.63,0,0,1,12.3-5.13l1,.27a10.74,10.74,0,0,1,6.48,15.45A61.33,61.33,0,0,1,352.05,234.37Z"/><circle class="cls-1" cx="311.49" cy="122.67" r="10.21"/><circle class="cls-1" cx="465.74" cy="122.67" r="10.21"/><circle class="cls-1" cx="384.33" cy="52.4" r="12.97"/></g></svg>